<?xml version="1.0" encoding="UTF-8" standalone="no"?>
<!-- Uploaded to: SVG Repo, www.svgrepo.com, Generator: SVG Repo Mixer Tools -->

<svg
   height="400"
   width="400"
   version="1.1"
   id="Layer_1"
   viewBox="0 0 256 256"
   xml:space="preserve"
   sodipodi:docname="rubik-rubik-svgrepo-com.svg"
   inkscape:version="1.4.2 (ebf0e94, 2025-05-08)"
   xmlns:inkscape="http://www.inkscape.org/namespaces/inkscape"
   xmlns:sodipodi="http://sodipodi.sourceforge.net/DTD/sodipodi-0.dtd"
   xmlns="http://www.w3.org/2000/svg"
   xmlns:svg="http://www.w3.org/2000/svg"><defs
   id="defs43" /><sodipodi:namedview
   id="namedview43"
   pagecolor="#ffffff"
   bordercolor="#000000"
   borderopacity="0.25"
   inkscape:showpageshadow="2"
   inkscape:pageopacity="0.0"
   inkscape:pagecheckerboard="0"
   inkscape:deskcolor="#d1d1d1"
   inkscape:zoom="1.1806852"
   inkscape:cx="164.22651"
   inkscape:cy="358.56187"
   inkscape:window-width="1920"
   inkscape:window-height="1171"
   inkscape:window-x="0"
   inkscape:window-y="0"
   inkscape:window-maximized="1"
   inkscape:current-layer="Layer_1"
   showgrid="false"
   inkscape:rotation="-20" />
<polygon
   style="fill:#4e5058"
   points="348.16,501.76 501.76,358.4 501.76,10.24 160.705,10.24 10.24,153.6 10.24,501.76 "
   id="polygon1"
   transform="scale(0.5)" />
<g
   id="g9"
   style="fill:#338000"
   transform="scale(0.5)">
	<path
   style="fill:#338000"
   d="M 92.16,266.24 H 10.24 C 4.585,266.24 0,261.655 0,256 v -81.92 c 0,-5.655 4.585,-10.24 10.24,-10.24 h 81.92 c 5.655,0 10.24,4.585 10.24,10.24 V 256 c 0,5.655 -4.585,10.24 -10.24,10.24 z"
   id="path1" />
	<path
   style="fill:#338000"
   d="m 215.04,266.24 h -81.92 c -5.655,0 -10.24,-4.585 -10.24,-10.24 v -81.92 c 0,-5.655 4.585,-10.24 10.24,-10.24 h 81.92 c 5.655,0 10.24,4.585 10.24,10.24 V 256 c 0,5.655 -4.585,10.24 -10.24,10.24 z"
   id="path2" />
	<path
   style="fill:#338000"
   d="M 337.92,266.24 H 256 c -5.655,0 -10.24,-4.585 -10.24,-10.24 v -81.92 c 0,-5.655 4.585,-10.24 10.24,-10.24 h 81.92 c 5.655,0 10.24,4.585 10.24,10.24 V 256 c 0,5.655 -4.585,10.24 -10.24,10.24 z"
   id="path3" />
	<path
   style="fill:#338000"
   d="M 92.16,389.12 H 10.24 C 4.585,389.12 0,384.535 0,378.88 v -81.92 c 0,-5.655 4.585,-10.24 10.24,-10.24 h 81.92 c 5.655,0 10.24,4.585 10.24,10.24 v 81.92 c 0,5.655 -4.585,10.24 -10.24,10.24 z"
   id="path4" />
	<path
   style="fill:#338000"
   d="m 215.04,389.12 h -81.92 c -5.655,0 -10.24,-4.585 -10.24,-10.24 v -81.92 c 0,-5.655 4.585,-10.24 10.24,-10.24 h 81.92 c 5.655,0 10.24,4.585 10.24,10.24 v 81.92 c 0,5.655 -4.585,10.24 -10.24,10.24 z"
   id="path5" />
	<path
   style="fill:#338000"
   d="M 337.92,389.12 H 256 c -5.655,0 -10.24,-4.585 -10.24,-10.24 v -81.92 c 0,-5.655 4.585,-10.24 10.24,-10.24 h 81.92 c 5.655,0 10.24,4.585 10.24,10.24 v 81.92 c 0,5.655 -4.585,10.24 -10.24,10.24 z"
   id="path6" />
	<path
   style="fill:#338000"
   d="M 92.16,512 H 10.24 C 4.585,512 0,507.415 0,501.76 V 419.84 C 0,414.185 4.585,409.6 10.24,409.6 h 81.92 c 5.655,0 10.24,4.585 10.24,10.24 v 81.92 c 0,5.655 -4.585,10.24 -10.24,10.24 z"
   id="path7" />
	<path
   style="fill:#338000"
   d="m 215.04,512 h -81.92 c -5.655,0 -10.24,-4.585 -10.24,-10.24 v -81.92 c 0,-5.655 4.585,-10.24 10.24,-10.24 h 81.92 c 5.655,0 10.24,4.585 10.24,10.24 v 81.92 c 0,5.655 -4.585,10.24 -10.24,10.24 z"
   id="path8" />
	<path
   style="fill:#338000"
   d="M 337.92,512 H 256 c -5.655,0 -10.24,-4.585 -10.24,-10.24 v -81.92 c 0,-5.655 4.585,-10.24 10.24,-10.24 h 81.92 c 5.655,0 10.24,4.585 10.24,10.24 v 81.92 c 0,5.655 -4.585,10.24 -10.24,10.24 z"
   id="path9" />
</g>
<g
   id="g25"
   style="fill:#338000"
   transform="scale(0.5)">
	<path
   style="fill:#338000"
   d="m 102.4,174.08 c 0,-5.655 -4.585,-10.24 -10.24,-10.24 H 10.24 C 4.585,163.84 0,168.425 0,174.08 V 256 c 0,5.655 4.585,10.24 10.24,10.24 H 83.2 l 19.2,-19.2 z"
   id="path10" />
	<path
   style="fill:#338000"
   d="m 83.2,266.24 h 8.96 c 5.655,0 10.24,-4.585 10.24,-10.24 v -8.96 z"
   id="path11" />
	<path
   style="fill:#338000"
   d="m 133.12,163.84 c -5.655,0 -10.24,4.585 -10.24,10.24 v 52.48 l 62.72,-62.72 z"
   id="path12" />
	<path
   style="fill:#338000"
   d="m 215.04,266.24 c 5.655,0 10.24,-4.585 10.24,-10.24 V 232.96 L 192,266.24 Z"
   id="path13" />
	<path
   style="fill:#338000"
   d="M 337.92,163.84 H 294.4 l -48.64,48.64 V 256 c 0,5.655 4.585,10.24 10.24,10.24 h 81.92 c 5.655,0 10.24,-4.585 10.24,-10.24 v -81.92 c 0,-5.655 -4.585,-10.24 -10.24,-10.24 z"
   id="path14" />
	<path
   style="fill:#338000"
   d="M 10.24,286.72 C 4.585,286.72 0,291.305 0,296.96 v 52.48 l 62.72,-62.72 z"
   id="path15" />
	<path
   style="fill:#338000"
   d="m 92.16,389.12 c 5.655,0 10.24,-4.585 10.24,-10.24 v -23.04 l -33.28,33.28 z"
   id="path16" />
	<path
   style="fill:#338000"
   d="m 215.04,286.72 h -43.52 l -48.64,48.64 v 43.52 c 0,5.655 4.585,10.24 10.24,10.24 h 81.92 c 5.655,0 10.24,-4.585 10.24,-10.24 v -81.92 c 0,-5.655 -4.585,-10.24 -10.24,-10.24 z"
   id="path17" />
	<path
   style="fill:#338000"
   d="m 256,286.72 c -5.655,0 -10.24,4.585 -10.24,10.24 v 70.4 l 80.64,-80.64 z"
   id="path18" />
	<path
   style="fill:#338000"
   d="m 337.92,389.12 c 5.655,0 10.24,-4.585 10.24,-10.24 v -47.36 l -57.6,57.6 z"
   id="path19" />
	<path
   style="fill:#338000"
   d="m 0,419.84 v 38.4 L 48.64,409.6 H 10.24 C 4.585,409.6 0,414.185 0,419.84 Z"
   id="path20" />
	<path
   style="fill:#338000"
   d="M 92.16,409.6 H 48.64 L 0,458.24 v 43.52 C 0,507.415 4.585,512 10.24,512 h 81.92 c 5.655,0 10.24,-4.585 10.24,-10.24 v -81.92 c 0,-5.655 -4.585,-10.24 -10.24,-10.24 z"
   id="path21" />
	<path
   style="fill:#338000"
   d="m 122.88,419.84 v 70.4 l 80.64,-80.64 h -70.4 c -5.655,0 -10.24,4.585 -10.24,10.24 z"
   id="path22" />
	<path
   style="fill:#338000"
   d="m 215.04,512 c 5.655,0 10.24,-4.585 10.24,-10.24 V 454.4 l -57.6,57.6 z"
   id="path23" />
	<path
   style="fill:#338000"
   d="m 245.76,419.84 v 14.08 L 270.08,409.6 H 256 c -5.655,0 -10.24,4.585 -10.24,10.24 z"
   id="path24" />
	<path
   style="fill:#338000"
   d="m 337.92,409.6 h -67.84 l -24.32,24.32 v 67.84 c 0,5.655 4.585,10.24 10.24,10.24 h 32 l 60.16,-60.16 v -32 c 0,-5.655 -4.585,-10.24 -10.24,-10.24 z"
   id="path25" />
</g>
<g
   id="g34"
   style="fill:#ff6600"
   transform="scale(0.5)">
	<path
   style="fill:#ff6600"
   d="m 393.337,227.843 -24.696,23.05 c -5.655,5.279 -10.24,4.973 -10.24,-0.682 v -81.92 c 0,-5.655 4.585,-14.519 10.24,-19.798 l 24.696,-23.05 c 5.655,-5.279 10.24,-4.973 10.24,0.682 v 81.92 c 0,5.656 -4.585,14.519 -10.24,19.798 z"
   id="path26" />
	<path
   style="fill:#ff6600"
   d="m 447.548,177.246 -24.696,23.05 c -5.655,5.279 -10.24,4.973 -10.24,-0.682 v -81.92 c 0,-5.655 4.585,-14.519 10.24,-19.798 l 24.696,-23.05 c 5.655,-5.279 10.24,-4.973 10.24,0.682 v 81.92 c 0,5.655 -4.585,14.519 -10.24,19.798 z"
   id="path27" />
	<path
   style="fill:#ff6600"
   d="m 501.76,126.647 -24.696,23.05 c -5.655,5.279 -10.24,4.973 -10.24,-0.682 v -81.92 c 0,-5.655 4.585,-14.519 10.24,-19.798 L 501.76,24.247 C 507.415,18.968 512,19.274 512,24.929 v 81.92 c 0,5.657 -4.585,14.519 -10.24,19.798 z"
   id="path28" />
	<path
   style="fill:#ff6600"
   d="m 393.337,350.723 -24.696,23.05 c -5.655,5.279 -10.24,4.973 -10.24,-0.682 v -81.92 c 0,-5.655 4.585,-14.519 10.24,-19.798 l 24.696,-23.05 c 5.655,-5.279 10.24,-4.973 10.24,0.682 v 81.92 c 0,5.656 -4.585,14.519 -10.24,19.798 z"
   id="path29" />
	<path
   style="fill:#ff6600"
   d="m 447.548,300.126 -24.696,23.05 c -5.655,5.279 -10.24,4.973 -10.24,-0.682 v -81.92 c 0,-5.655 4.585,-14.519 10.24,-19.798 l 24.696,-23.05 c 5.655,-5.279 10.24,-4.973 10.24,0.682 v 81.92 c 0,5.655 -4.585,14.519 -10.24,19.798 z"
   id="path30" />
	<path
   style="fill:#ff6600"
   d="m 501.76,249.527 -24.696,23.05 c -5.655,5.279 -10.24,4.973 -10.24,-0.682 v -81.92 c 0,-5.655 4.585,-14.519 10.24,-19.798 l 24.696,-23.05 c 5.655,-5.279 10.24,-4.973 10.24,0.682 v 81.92 c 0,5.657 -4.585,14.519 -10.24,19.798 z"
   id="path31" />
	<path
   style="fill:#ff6600"
   d="m 393.337,473.603 -24.696,23.05 c -5.655,5.279 -10.24,4.973 -10.24,-0.682 v -81.92 c 0,-5.655 4.585,-14.519 10.24,-19.798 l 24.696,-23.05 c 5.655,-5.279 10.24,-4.973 10.24,0.682 v 81.92 c 0,5.656 -4.585,14.519 -10.24,19.798 z"
   id="path32" />
	<path
   style="fill:#ff6600"
   d="m 447.548,423.006 -24.696,23.05 c -5.655,5.279 -10.24,4.973 -10.24,-0.682 v -81.92 c 0,-5.655 4.585,-14.519 10.24,-19.798 l 24.696,-23.05 c 5.655,-5.279 10.24,-4.973 10.24,0.682 v 81.92 c 0,5.655 -4.585,14.519 -10.24,19.798 z"
   id="path33" />
	<path
   style="fill:#ff6600"
   d="m 501.76,372.407 -24.696,23.05 c -5.655,5.279 -10.24,4.973 -10.24,-0.682 v -81.92 c 0,-5.655 4.585,-14.519 10.24,-19.798 l 24.696,-23.05 c 5.655,-5.279 10.24,-4.973 10.24,0.682 v 81.92 c 0,5.657 -4.585,14.519 -10.24,19.798 z"
   id="path34" />
</g>
<g
   id="g43"
   style="fill:#0000ff"
   transform="scale(0.5)">
	<path
   style="fill:#0000ff"
   d="M 224.807,34.936 251.58,10.24 C 257.712,4.585 258.097,0 252.442,0 h -81.92 c -5.655,0 -15.21,4.585 -21.341,10.24 l -26.774,24.696 c -6.131,5.655 -6.516,10.24 -0.861,10.24 h 81.92 c 5.655,0 15.209,-4.585 21.341,-10.24 z"
   id="path35" />
	<path
   style="fill:#0000ff"
   d="m 166.035,89.148 26.774,-24.696 c 6.131,-5.655 6.516,-10.24 0.861,-10.24 h -81.92 c -5.655,0 -15.21,4.585 -21.341,10.24 L 63.635,89.148 c -6.131,5.655 -6.516,10.24 -0.861,10.24 h 81.92 c 5.655,0 15.21,-4.585 21.341,-10.24 z"
   id="path36" />
	<path
   style="fill:#0000ff"
   d="m 107.263,143.36 26.774,-24.696 c 6.131,-5.655 6.516,-10.24 0.861,-10.24 h -81.92 c -5.655,0 -15.21,4.585 -21.341,10.24 L 4.863,143.36 c -6.131,5.655 -6.516,10.24 -0.861,10.24 h 81.92 c 5.656,0 15.21,-4.585 21.341,-10.24 z"
   id="path37" />
	<path
   style="fill:#0000ff"
   d="M 347.687,34.936 374.46,10.24 C 380.592,4.585 380.977,0 375.322,0 h -81.92 c -5.655,0 -15.21,4.585 -21.341,10.24 l -26.774,24.696 c -6.131,5.655 -6.516,10.24 -0.861,10.24 h 81.92 c 5.655,0 15.209,-4.585 21.341,-10.24 z"
   id="path38" />
	<path
   style="fill:#0000ff"
   d="m 288.915,89.148 26.774,-24.696 c 6.131,-5.655 6.516,-10.24 0.861,-10.24 h -81.92 c -5.655,0 -15.21,4.585 -21.341,10.24 l -26.774,24.696 c -6.131,5.655 -6.516,10.24 -0.861,10.24 h 81.92 c 5.655,0 15.21,-4.585 21.341,-10.24 z"
   id="path39" />
	<path
   style="fill:#0000ff"
   d="m 230.143,143.36 26.774,-24.696 c 6.131,-5.655 6.516,-10.24 0.861,-10.24 h -81.92 c -5.655,0 -15.21,4.585 -21.341,10.24 l -26.774,24.696 c -6.131,5.655 -6.516,10.24 -0.861,10.24 h 81.92 c 5.656,0 15.21,-4.585 21.341,-10.24 z"
   id="path40" />
	<path
   style="fill:#0000ff"
   d="M 470.567,34.936 497.34,10.24 C 503.472,4.585 503.857,0 498.202,0 h -81.92 c -5.655,0 -15.21,4.585 -21.341,10.24 l -26.774,24.696 c -6.131,5.655 -6.516,10.24 -0.861,10.24 h 81.92 c 5.655,0 15.209,-4.585 21.341,-10.24 z"
   id="path41" />
	<path
   style="fill:#0000ff"
   d="m 411.795,89.148 26.774,-24.696 c 6.131,-5.655 6.517,-10.24 0.861,-10.24 h -81.92 c -5.655,0 -15.21,4.585 -21.341,10.24 l -26.774,24.696 c -6.131,5.655 -6.516,10.24 -0.861,10.24 h 81.92 c 5.655,0 15.21,-4.585 21.341,-10.24 z"
   id="path42" />
	<path
   style="fill:#0000ff"
   d="m 353.023,143.36 26.774,-24.696 c 6.131,-5.655 6.517,-10.24 0.861,-10.24 h -81.92 c -5.655,0 -15.21,4.585 -21.341,10.24 l -26.774,24.696 c -6.131,5.655 -6.516,10.24 -0.861,10.24 h 81.92 c 5.656,0 15.21,-4.585 21.341,-10.24 z"
   id="path43" />
</g>
</svg>
