<?xml version="1.0" encoding="UTF-8" standalone="no"?>
<svg
   width="80"
   height="79.999863"
   viewBox="0 0 2.4 2.3999959"
   version="1.1"
   id="svg1"
   sodipodi:docname="clear.svg"
   inkscape:version="1.4.2 (ebf0e94, 2025-05-08)"
   xmlns:inkscape="http://www.inkscape.org/namespaces/inkscape"
   xmlns:sodipodi="http://sodipodi.sourceforge.net/DTD/sodipodi-0.dtd"
   xmlns="http://www.w3.org/2000/svg"
   xmlns:svg="http://www.w3.org/2000/svg">
  <defs
     id="defs1" />
  <sodipodi:namedview
     id="namedview1"
     pagecolor="#ffffff"
     bordercolor="#000000"
     borderopacity="0.25"
     inkscape:showpageshadow="2"
     inkscape:pageopacity="0.0"
     inkscape:pagecheckerboard="0"
     inkscape:deskcolor="#d1d1d1"
     inkscape:zoom="3.8152155"
     inkscape:cx="38.529934"
     inkscape:cy="34.467254"
     inkscape:window-width="1920"
     inkscape:window-height="1171"
     inkscape:window-x="0"
     inkscape:window-y="0"
     inkscape:window-maximized="1"
     inkscape:current-layer="svg1">
    <inkscape:page
       x="0"
       y="0"
       width="2.4000001"
       height="2.3999958"
       id="page2"
       margin="0"
       bleed="0" />
  </sodipodi:namedview>
  <!-- Uploaded to: SVG Repo, www.svgrepo.com, Generator: SVG Repo Mixer Tools -->
  <title
     id="title1">ic_fluent_read_only_24_regular</title>
  <desc
     id="desc1">Created with Sketch.</desc>
  <path
     d="M 3.28046,2.21962 21.7802,20.7198 c 0.2929,0.2929 0.2929,0.7677 0,1.0606 -0.2929,0.2929 -0.7677,0.2929 -1.0606,0 L 14,15.0608 9.0621,19.9987 C 8.78522,20.2756 8.44089,20.4754 8.06312,20.5784 L 2.94743,21.9736 C 2.38756,22.1263 1.87383,21.6126 2.02652,21.0527 L 3.42171,15.937 c 0.10303,-0.3777 0.30285,-0.7221 0.57973,-0.9989 l 4.938,-4.938 L 2.21979,3.28027 C 1.9269,2.98737 1.9269,2.5125 2.2198,2.21961 2.51269,1.92672 2.98757,1.92672 3.28046,2.21962 Z m 6.71964,8.84108 -4.938,4.938 C 4.992883,16.06792 4.93811,16.149806 4.9005627,16.239534 L 4.86886,16.3317 3.81901,20.1811 7.66845,19.1313 C 7.76289,19.10558 7.8510637,19.06162 7.928183,19.002361 L 8.00144,18.9381 12.9392,13.9999 Z m 5.9697,-8.09097 c 1.3974,-1.39746 3.6632,-1.39746 5.0606,0 1.347589,1.3475507 1.395717,3.5024689 0.144385,4.9076888 L 21.0304,8.03039 l -4.9097,4.90971 -1.0609,-1.0608 2.8795,-2.87967 -2.939,-2.939 -2.8796,2.8795 -1.0606,-1.0607 z m 1.0606,1.06066 -0.9701,0.96924 2.939,2.94 0.9705,-0.9699 c 0.8116,-0.81168 0.8116,-2.12767 0,-2.93934 -0.8117,-0.81168 -2.1277,-0.81168 -2.9394,0 z"
     id="🎨-Color"
     style="fill:#000000"
     inkscape:label="clear"
     transform="matrix(0.11952632,0,0,0.11952632,-0.23896473,-0.22968589)" />
</svg>
