<?xml version="1.0" encoding="UTF-8" standalone="no"?>
<svg
   width="80"
   height="79.999863"
   viewBox="0 0 2.4 2.3999959"
   version="1.1"
   id="svg1"
   sodipodi:docname="clear.svg"
   xmlns:inkscape="http://www.inkscape.org/namespaces/inkscape"
   xmlns:sodipodi="http://sodipodi.sourceforge.net/DTD/sodipodi-0.dtd"
   xmlns="http://www.w3.org/2000/svg"
   xmlns:svg="http://www.w3.org/2000/svg">
  <defs
     id="defs1" />
  <sodipodi:namedview
     id="namedview1"
     pagecolor="#ffffff"
     bordercolor="#000000"
     borderopacity="0.25"
     inkscape:showpageshadow="2"
     inkscape:pageopacity="0.0"
     inkscape:pagecheckerboard="0"
     inkscape:deskcolor="#d1d1d1"
     showguides="false">
    <inkscape:page
       x="0"
       y="0"
       width="2.4000001"
       height="2.3999958"
       id="page2"
       margin="0"
       bleed="0" />
  </sodipodi:namedview>
  <!-- Uploaded to: SVG Repo, www.svgrepo.com, Generator: SVG Repo Mixer Tools -->
  <title
     id="title1">ic_fluent_read_only_24_regular</title>
  <desc
     id="desc1">Created with Sketch.</desc>
  <circle
     style="opacity:0.303;mix-blend-mode:normal;fill:#60009d;fill-opacity:1;stroke-width:0.02925"
     id="path1"
     cx="1.2283034"
     cy="1.2034299"
     r="1.17" />
  <path
     d="M 0.15313658,0.03561712 2.3643424,2.2468755 c 0.035009,0.035009 0.035009,0.09176 0,0.1267696 -0.035009,0.035009 -0.09176,0.035009 -0.1267696,0 L 1.4344037,1.5704761 0.84419473,2.1606851 c -0.0330945,0.033097 -0.0742509,0.056978 -0.1194044,0.069289 L 0.11333073,2.3967376 C 0.04641153,2.4149893 -0.01499273,2.3535886 0.00325775,2.2866658 L 0.17001967,1.675205 c 0.0123148,-0.045145 0.0361985,-0.08631 0.069293,-0.1193948 L 0.82953363,0.96558926 0.0263586,0.16239271 c -0.03500807,-0.0350093 -0.03500807,-0.09176872 1.19e-6,-0.12677679 0.03500807,-0.0350080653 0.09176873,-0.0350080653 0.12677679,1.2e-6 z M 0.95631042,1.0923589 0.36608945,1.6825798 c -0.008273,0.00827 -0.0148201,0.018061 -0.019308,0.028786 l -0.003789,0.011016 -0.12548471,0.4601046 0.4601094,-0.1254787 c 0.0112881,-0.00307 0.0218271,-0.00833 0.0310449,-0.015412 l 0.008756,-0.00768 L 1.3076102,1.4436706 Z M 1.6698467,0.12527501 c 0.1670261,-0.16703326 0.4378488,-0.16703326 0.6048749,0 0.1610723,0.16106777 0.1668249,0.41863721 0.017258,0.58659798 L 2.2747216,0.73015707 1.6878832,1.3169966 1.5610777,1.1902031 1.9052538,0.84600676 1.5539659,0.49471891 1.2097779,0.83889495 1.0830083,0.71211338 Z M 1.7966163,0.25205179 1.6806638,0.36790148 2.0319517,0.71930886 2.147952,0.60338029 c 0.097008,-0.0970171 0.097008,-0.25431257 0,-0.3513285 -0.09702,-0.0970171 -0.2543162,-0.0970171 -0.3513357,0 z"
     id="🎨-Color"
     style="fill:#60009d;fill-opacity:1;stroke-width:0.119526"
     inkscape:label="clear" />
</svg>
