<?xml version="1.0" encoding="UTF-8" standalone="no"?>
<svg
   width="80"
   height="80"
   viewBox="0 0 2.4 2.4"
   version="1.1"
   id="svg1"
   sodipodi:docname="fix.svg"
   xmlns:inkscape="http://www.inkscape.org/namespaces/inkscape"
   xmlns:sodipodi="http://sodipodi.sourceforge.net/DTD/sodipodi-0.dtd"
   xmlns="http://www.w3.org/2000/svg"
   xmlns:svg="http://www.w3.org/2000/svg">
  <defs
     id="defs1" />
  <sodipodi:namedview
     id="namedview1"
     pagecolor="#ffffff"
     bordercolor="#000000"
     borderopacity="0.25"
     inkscape:showpageshadow="2"
     inkscape:pageopacity="0.0"
     inkscape:pagecheckerboard="0"
     inkscape:deskcolor="#d1d1d1">
    <inkscape:page
       x="0"
       y="0"
       width="2.4000001"
       height="2.4000001"
       id="page2"
       margin="0"
       bleed="0" />
  </sodipodi:namedview>
  <!-- Uploaded to: SVG Repo, www.svgrepo.com, Generator: SVG Repo Mixer Tools -->
  <title
     id="title1">ic_fluent_pen_settings_24_regular</title>
  <desc
     id="desc1">Created with Sketch.</desc>
  <path
     d="m 2.2747248,0.12527515 c 0.1670336,0.1670336 0.1670336,0.43784859 0,0.60488219 L 1.9586468,1.0461662 C 1.8996128,1.0168662 1.8363228,0.9948532 1.769953,0.9813019 L 1.90525,0.84600739 1.553962,0.49471947 0.36608916,1.6825822 c -0.0110313,0.011031 -0.0189928,0.02475 -0.0230976,0.039801 L 0.21750726,2.1824926 0.67761637,2.0570084 c 0.0150509,-0.0041 0.02877,-0.012066 0.0398013,-0.023098 L 0.8525006,1.8987543 c 0.0135578,0.066402 0.0355861,0.1297213 0.064907,0.1887798 l -0.073213,0.073153 C 0.8111007,2.1937811 0.7699433,2.2176661 0.72479064,2.2299801 L 0.11333091,2.3967421 C 0.04641121,2.414993 -0.01499302,2.3535887 0.0032578,2.286669 L 0.17001953,1.6752093 c 0.0123144,-0.045153 0.0361989,-0.08631 0.0692928,-0.1194039 L 1.6698426,0.12527515 c 0.1670336,-0.1670336 0.4378485,-0.1670336 0.6048822,0 z M 1.6137047,1.0851111 c 0.03503,0 0.069398,0.00293 0.1028867,0.00858 l 0.020717,0.085587 c 0.030954,0.1283452 0.1600913,0.2072965 0.2884365,0.1763427 l 0.011687,-0.00313 v 0 l 0.071848,-0.021382 c 0.043336,0.055818 0.078045,0.1191123 0.1020349,0.1877168 l -0.053456,0.051428 c -0.09013,0.086722 -0.097491,0.2271079 -0.020182,0.3225372 l 0.016894,0.018759 v 0 l 0.056744,0.054653 C 2.1873429,2.0347506 2.1526659,2.0980036 2.1093731,2.1537924 L 2.0374326,2.1325294 C 1.9108182,2.0951206 1.777851,2.1674361 1.7404423,2.2940506 l -0.00313,0.011687 v 0 l -0.020717,0.085587 c -0.033488,0.00564 -0.067856,0.00858 -0.1028862,0.00858 -0.035068,0 -0.069472,-0.00294 -0.1029953,-0.00859 L 1.4901006,2.3057382 C 1.4591467,2.177393 1.3300092,2.0984417 1.201664,2.1293955 l -0.011687,0.00313 v 0 L 1.118036,2.1537885 C 1.0747434,2.0980037 1.0400664,2.0347508 1.0160941,1.9661951 l 0.053456,-0.051428 c 0.095137,-0.09154 0.098053,-0.2428719 0.00651,-0.3380089 l -0.00651,-0.00651 -0.053456,-0.051428 c 0.023972,-0.068556 0.058649,-0.1318086 0.1019421,-0.1875974 l 0.071941,0.021263 c 0.1266144,0.037409 0.2595816,-0.034907 0.2969904,-0.1615212 l 0.00313,-0.011687 v 0 l 0.020609,-0.085569 c 0.033523,-0.00565 0.067927,-0.00859 0.1029948,-0.00859 z m 0,0.4781054 c -0.095697,0 -0.173274,0.080271 -0.173274,0.1792895 0,0.099019 0.077577,0.1792895 0.173274,0.1792895 0.095697,0 0.1732739,-0.080271 0.1732739,-0.1792895 0,-0.099019 -0.077577,-0.1792895 -0.1732739,-0.1792895 z M 1.7966194,0.25205198 1.68066,0.36790203 2.0319479,0.71930947 2.147948,0.60338051 c 0.097017,-0.0970167 0.097017,-0.25431183 0,-0.35132853 -0.097017,-0.0970167 -0.2543119,-0.0970167 -0.3513286,0 z"
     id="🎨-Color"
     inkscape:label="fix"
     style="stroke-width:0.119526" />
</svg>
