<?xml version="1.0" encoding="UTF-8" standalone="no"?>
<svg
   width="40"
   height="40"
   viewBox="0 0 1.2 1.2"
   version="1.1"
   id="svg1"
   sodipodi:docname="magic.svg"
   inkscape:export-filename="magic.svg"
   inkscape:export-xdpi="4.8000002"
   inkscape:export-ydpi="4.8000002"
   inkscape:version="1.4.2 (ebf0e94, 2025-05-08)"
   xmlns:inkscape="http://www.inkscape.org/namespaces/inkscape"
   xmlns:sodipodi="http://sodipodi.sourceforge.net/DTD/sodipodi-0.dtd"
   xmlns="http://www.w3.org/2000/svg"
   xmlns:svg="http://www.w3.org/2000/svg">
  <defs
     id="defs1" />
  <sodipodi:namedview
     id="namedview1"
     pagecolor="#ffffff"
     bordercolor="#000000"
     borderopacity="0.25"
     inkscape:showpageshadow="2"
     inkscape:pageopacity="0.0"
     inkscape:pagecheckerboard="0"
     inkscape:deskcolor="#d1d1d1"
     inkscape:zoom="10.522058"
     inkscape:cx="40.20126"
     inkscape:cy="2.803634"
     inkscape:window-width="1920"
     inkscape:window-height="1171"
     inkscape:window-x="0"
     inkscape:window-y="0"
     inkscape:window-maximized="1"
     inkscape:current-layer="svg1">
    <inkscape:page
       x="0"
       y="0"
       width="1.2"
       height="1.2"
       id="page2"
       margin="0"
       bleed="0" />
  </sodipodi:namedview>
  <!-- Uploaded to: SVG Repo, www.svgrepo.com, Generator: SVG Repo Mixer Tools -->
  <title
     id="title1">ic_fluent_magic_wand_24_regular</title>
  <desc
     id="desc1">Created with Sketch.</desc>
  <path
     d="m 10.686377,7.5653838 0.136112,0.1255377 10.479369,10.4875715 c 0.886019,0.886666 0.885527,2.323702 -0.0011,3.209761 -0.886608,0.886042 -2.323602,0.885555 -3.209706,-0.0011 L 7.6121283,10.900343 C 6.7345739,10.021275 6.7349173,8.5973805 7.6131535,7.718478 L 7.7696267,7.5714995 C 8.6069279,6.8538806 9.8466521,6.8519051 10.686377,7.5653838 Z M 11.534,10.526 l -1.088,1.088 8.706082,8.712847 c 0.300484,0.300676 0.787731,0.300841 1.088356,4.08e-4 0.300671,-0.300479 0.300838,-0.787804 3.73e-4,-1.088489 z M 7.1482294,15.006847 7.25,15 c 0.3796958,0 0.693491,0.282154 0.7431534,0.648229 L 8,15.75 v 0.75 h 0.75 c 0.3796958,0 0.693491,0.282154 0.7431534,0.648229 L 9.5,17.25 c 0,0.379696 -0.2821539,0.693491 -0.6482294,0.743153 L 8.75,18 H 8 v 0.75 c 0,0.379696 -0.2821539,0.693491 -0.6482294,0.743153 L 7.25,19.5 C 6.8703042,19.5 6.556509,19.217846 6.5068466,18.851771 L 6.5,18.75 V 18 H 5.75 C 5.3703042,18 5.056509,17.717846 5.0068466,17.351771 L 5,17.25 C 5,16.870304 5.2821539,16.556509 5.6482294,16.506847 L 5.75,16.5 H 6.5 v -0.75 c 0,-0.379696 0.2821539,-0.693491 0.6482294,-0.743153 L 7.25,15 Z M 8.7013293,8.7516285 8.6739581,8.7789938 C 8.3810302,9.0721439 8.3809155,9.5473054 8.6734443,9.8403389 L 9.385,10.553 10.474,9.464 9.7443826,8.7346701 C 9.4504335,8.4586749 8.9884816,8.4642693 8.7013293,8.7516285 Z M 17.148229,5.0068466 17.25,5 c 0.379696,0 0.693491,0.2821539 0.743153,0.6482294 L 18,5.75 V 6.5 h 0.75 c 0.379696,0 0.693491,0.2821539 0.743153,0.6482294 L 19.5,7.25 c 0,0.3796958 -0.282154,0.693491 -0.648229,0.7431534 L 18.75,8 H 18 v 0.75 c 0,0.3796958 -0.282154,0.693491 -0.648229,0.7431534 L 17.25,9.5 C 16.870304,9.5 16.556509,9.2178461 16.506847,8.8517706 L 16.5,8.75 V 8 H 15.75 C 15.370304,8 15.056509,7.7178461 15.006847,7.3517706 L 15,7.25 C 15,6.8703042 15.282154,6.556509 15.648229,6.5068466 L 15.75,6.5 H 16.5 V 5.75 c 0,-0.3796958 0.282154,-0.693491 0.648229,-0.7431534 L 17.25,5 Z m -11.9999996,-2 L 5.25,3 C 5.6296958,3 5.943491,3.2821539 5.9931534,3.6482294 L 6,3.75 V 4.5 h 0.75 c 0.3796958,0 0.693491,0.2821539 0.7431534,0.6482294 L 7.5,5.25 C 7.5,5.6296958 7.2178461,5.943491 6.8517706,5.9931534 L 6.75,6 H 6 V 6.75 C 6,7.1296958 5.7178461,7.443491 5.3517706,7.4931534 L 5.25,7.5 C 4.8703042,7.5 4.556509,7.2178461 4.5068466,6.8517706 L 4.5,6.75 V 6 H 3.75 C 3.3703042,6 3.056509,5.7178461 3.0068466,5.3517706 L 3,5.25 C 3,4.8703042 3.2821539,4.556509 3.6482294,4.5068466 L 3.75,4.5 H 4.5 V 3.75 C 4.5,3.3703042 4.7821539,3.056509 5.1482294,3.0068466 L 5.25,3 Z"
     id="🎨-Color"
     style="fill:#000000"
     transform="matrix(0.06327095,0,0,0.06298397,-0.1898128,-0.1889519)"
     inkscape:label="magic" />
</svg>
