<?xml version="1.0" encoding="UTF-8" standalone="no"?>
<svg
   width="53.333332"
   height="39.999985"
   viewBox="0 0 1.3333333 0.99999962"
   version="1.1"
   id="svg1"
   sodipodi:docname="next.svg"
   xmlns:inkscape="http://www.inkscape.org/namespaces/inkscape"
   xmlns:sodipodi="http://sodipodi.sourceforge.net/DTD/sodipodi-0.dtd"
   xmlns="http://www.w3.org/2000/svg"
   xmlns:svg="http://www.w3.org/2000/svg">
  <defs
     id="defs1" />
  <sodipodi:namedview
     id="namedview1"
     pagecolor="#ffffff"
     bordercolor="#000000"
     borderopacity="0.25"
     inkscape:showpageshadow="2"
     inkscape:pageopacity="0.0"
     inkscape:pagecheckerboard="0"
     inkscape:deskcolor="#d1d1d1">
    <inkscape:page
       x="-3.2191044e-17"
       y="0"
       width="1.3333333"
       height="0.99999964"
       id="page2"
       margin="0"
       bleed="0" />
  </sodipodi:namedview>
  <!-- Uploaded to: SVG Repo, www.svgrepo.com, Generator: SVG Repo Mixer Tools -->
  <title
     id="title1">ic_fluent_arrow_export_20_regular</title>
  <desc
     id="desc1">Created with Sketch.</desc>
  <path
     d="m 0.04166672,-1.7412109e-7 c 0.02301166,0 0.04166666,0.0186550041211 0.04166666,0.0416666641211 v 0.91666663 c 0,0.0230083 -0.018655,0.0416667 -0.04166666,0.0416667 C 0.01865505,0.99999979 5.0734862e-8,0.98134146 5.0734862e-8,0.95833312 V 0.04166649 C 5.0734862e-8,0.01865483 0.01865505,-1.7412109e-7 0.04166672,-1.7412109e-7 Z M 0.98780001,0.13720399 1.3211333,0.47053731 c 0.00438,0.004378 0.00757,0.009486 0.0096,0.0149317 0.00168,0.004524 0.0026,0.00942 0.0026,0.0145306 0,0.005109 -9.166e-4,0.0100085 -0.00261,0.0145335 -0.00202,0.005442 -0.00522,0.01055 -0.00959,0.0149333 L 0.98780001,0.8627998 c -0.016275,0.0162667 -0.0426583,0.0162667 -0.0589333,0 -0.0162667,-0.016275 -0.0162667,-0.0426583 0,-0.058925 L 1.191075,0.54166623 H 0.29166671 c -0.0230117,0 -0.0416667,-0.0186581 -0.0416667,-0.0416666 0,-0.0230115 0.018655,-0.0416667 0.0416667,-0.0416667 H 1.191075 L 0.92886668,0.19612899 c -0.0162667,-0.0162717 -0.0162667,-0.0426533 0,-0.058925 0.016275,-0.0162725 0.0426583,-0.0162725 0.0589333,0 z"
     id="🎨-Color"
     inkscape:label="next"
     style="stroke-width:0.0833333" />
</svg>
