<?xml version="1.0" encoding="UTF-8" standalone="no"?>
<svg
   width="53.333351"
   height="40.000015"
   viewBox="0 0 1.3333338 1.0000004"
   version="1.1"
   id="svg1"
   sodipodi:docname="next.svg"
   xmlns:inkscape="http://www.inkscape.org/namespaces/inkscape"
   xmlns:sodipodi="http://sodipodi.sourceforge.net/DTD/sodipodi-0.dtd"
   xmlns="http://www.w3.org/2000/svg"
   xmlns:svg="http://www.w3.org/2000/svg">
  <defs
     id="defs1" />
  <sodipodi:namedview
     id="namedview1"
     pagecolor="#ffffff"
     bordercolor="#000000"
     borderopacity="0.25"
     inkscape:showpageshadow="2"
     inkscape:pageopacity="0.0"
     inkscape:pagecheckerboard="0"
     inkscape:deskcolor="#d1d1d1">
    <inkscape:page
       x="-1.3681174e-16"
       y="0"
       width="1.3333338"
       height="1.0000004"
       id="page2"
       margin="0"
       bleed="0" />
  </sodipodi:namedview>
  <!-- Uploaded to: SVG Repo, www.svgrepo.com, Generator: SVG Repo Mixer Tools -->
  <title
     id="title1">ic_fluent_arrow_export_20_regular</title>
  <desc
     id="desc1">Created with Sketch.</desc>
  <path
     d="m 1.2916665,3.5095821e-7 c -0.023012,0 -0.041667,0.0186549990418 -0.041667,0.0416666990418 v 0.9166666 c 0,0.023008 0.018655,0.041667 0.041667,0.041667 0.023012,0 0.041667,-0.018658 0.041667,-0.041667 V 0.04166705 C 1.3333335,0.01865505 1.3146785,5.0958173e-8 1.2916665,3.5095821e-7 Z M 0.3455332,0.13720455 0.0121999,0.47053785 c -0.00438,0.00438 -0.00757,0.00949 -0.0096,0.014932 -0.001679999,0.00452 -0.0025999990422,0.00942 -0.0025999990422,0.014531 0,0.00511 9.16600002183e-4,0.010009 0.0026099990422,0.014534 0.00202,0.00544 0.00522,0.01055 0.00959,0.014933 l 0.3333333,0.3333333 c 0.016275,0.016267 0.042658,0.016267 0.058933,0 0.016267,-0.016275 0.016267,-0.042658 0,-0.058925 l -0.262208,-0.2622094 h 0.8994083 c 0.023012,0 0.041667,-0.018658 0.041667,-0.041667 0,-0.023011 -0.018655,-0.041667 -0.041667,-0.041667 H 0.1422582 l 0.2622083,-0.2622032 c 0.016267,-0.016272 0.016267,-0.042653 0,-0.058925 -0.016275,-0.016272 -0.042658,-0.016272 -0.0589333,0 z"
     id="🎨-Color"
     inkscape:label="next"
     inkscape:export-filename="next.svg"
     inkscape:export-xdpi="96"
     inkscape:export-ydpi="96"
     style="stroke-width:0.0833333" />
</svg>
