<?xml version="1.0" encoding="UTF-8" standalone="no"?>
<!-- Uploaded to: SVG Repo, www.svgrepo.com, Generator: SVG Repo Mixer Tools -->

<svg
   width="71.999992"
   height="79.999992"
   viewBox="0 0 2.5199997 2.7999998"
   fill="none"
   version="1.1"
   id="svg2"
   sodipodi:docname="reset.svg"
   inkscape:export-filename="approvals-dark.svg"
   inkscape:export-xdpi="4.8000002"
   inkscape:export-ydpi="4.8000002"
   inkscape:version="1.4.2 (ebf0e94, 2025-05-08)"
   xmlns:inkscape="http://www.inkscape.org/namespaces/inkscape"
   xmlns:sodipodi="http://sodipodi.sourceforge.net/DTD/sodipodi-0.dtd"
   xmlns="http://www.w3.org/2000/svg"
   xmlns:svg="http://www.w3.org/2000/svg">
  <defs
     id="defs2" />
  <sodipodi:namedview
     id="namedview2"
     pagecolor="#ffffff"
     bordercolor="#000000"
     borderopacity="0.25"
     inkscape:showpageshadow="2"
     inkscape:pageopacity="0.0"
     inkscape:pagecheckerboard="0"
     inkscape:deskcolor="#d1d1d1"
     inkscape:zoom="5.2460299"
     inkscape:cx="37.361587"
     inkscape:cy="-3.5264763"
     inkscape:window-width="1920"
     inkscape:window-height="1171"
     inkscape:window-x="0"
     inkscape:window-y="0"
     inkscape:window-maximized="1"
     inkscape:current-layer="svg2">
    <inkscape:page
       x="0"
       y="-1.1030046e-23"
       width="2.5199997"
       height="2.8"
       id="page2"
       margin="0"
       bleed="0" />
  </sodipodi:namedview>
  <path
     d="m 1.1740959,0.02562695 c -0.0351,-0.03416 -0.09203,-0.03417 -0.1271379,-2.561e-5 -0.035122,0.034144 -0.035136,0.08951599 -2.42e-5,0.12367199 L 1.2516793,0.34851131 C 0.55961215,0.35296392 0,0.90003705 0,1.5742428 0,2.2512104 0.56420714,2.8 1.2601903,2.8 c 0.6852069,0 1.2426622,-0.5318941 1.2597804,-1.1943918 0.00125,-0.048284 -0.037976,-0.088406 -0.087616,-0.08963 -0.04964,-0.00121 -0.090888,0.03695 -0.092138,0.085234 -0.01468,0.5678769 -0.4926153,1.0238876 -1.0800276,1.0238876 -0.59667617,0 -1.08037773,-0.4704809 -1.08037773,-1.0508572 0,-0.57854569 0.48066836,-1.04790265 1.07475553,-1.05084445 l -0.207622,0.20195853 c -0.035112,0.034152 -0.035112,0.089522 0,0.12367199 0.035112,0.034152 0.09203,0.034152 0.127138,0 L 1.5337085,0.4992287 c 0.035112,-0.034146 0.035112,-0.089506 1.2e-5,-0.12365999 z"
     fill="#212121"
     id="path1"
     style="stroke-width:0.118227;fill:#000000" />
  <path
     d="m 1.7734843,1.1917598 c 0.0351,0.034164 0.0351,0.089526 -2.4e-5,0.123678 l -0.629333,0.6119979 c -0.0351,0.034128 -0.091994,0.034152 -0.127102,3.51e-5 L 0.74705513,1.6651789 c -0.03513,-0.034128 -0.035162,-0.089502 -7.32e-5,-0.1236659 0.035084,-0.034176 0.092014,-0.03421 0.12714998,-8.18e-5 L 1.0805213,1.7419602 1.6463325,1.191748 c 0.035112,-0.034152 0.092038,-0.03414 0.1271518,1.18e-5 z"
     fill="#212121"
     id="path2"
     style="stroke-width:0.118227;fill:#000000" />
</svg>
